<svg viewBox="0 0 23.9997 20" xmlns="http://www.w3.org/2000/svg" xmlns:xlink="http://www.w3.org/1999/xlink" width="23.999695" height="20.000000" fill="none" customFrame="#000000">
	<path id="Форма 46" d="M23.1997 18.4L21.5997 18.4L21.5997 11.2001L21.8337 11.4341C21.9535 11.5536 22.108 11.6322 22.2751 11.6585C22.4422 11.6848 22.6134 11.6576 22.764 11.5806C22.9147 11.5037 23.0372 11.381 23.1139 11.2302C23.1905 11.0794 23.2175 10.9082 23.1909 10.7411C23.1643 10.574 23.0854 10.4197 22.9657 10.3001L13.1308 0.468253C12.9323 0.269807 12.685 0.127103 12.4138 0.0544728C12.1426 -0.0181575 11.8571 -0.0181575 11.5859 0.0544728C11.3147 0.127103 11.0674 0.269807 10.8689 0.468253L1.03399 10.3001C0.914566 10.4197 0.836051 10.5739 0.809693 10.7408C0.783336 10.9077 0.81049 11.0787 0.887263 11.2292C0.964036 11.3797 1.08649 11.502 1.23707 11.5787C1.38764 11.6553 1.55862 11.6823 1.72549 11.6558C1.89236 11.6293 2.04655 11.5506 2.16597 11.4311L2.39997 11.2001L2.39997 18.4L0.79999 18.4C0.631048 18.4 0.466444 18.4535 0.329768 18.5528C0.193091 18.6521 0.0913601 18.7921 0.0391543 18.9528C-0.0130514 19.1135 -0.0130514 19.2865 0.0391543 19.4472C0.09136 19.6079 0.193091 19.7479 0.329767 19.8472C0.466444 19.9465 0.631048 20 0.79999 20L23.1997 20C23.3686 20 23.5332 19.9465 23.6699 19.8472C23.8066 19.7479 23.9083 19.6079 23.9605 19.4472C24.0127 19.2865 24.0127 19.1135 23.9605 18.9528C23.9083 18.7921 23.8066 18.6521 23.6699 18.5528C23.5332 18.4535 23.3686 18.4 23.1997 18.4ZM14.3998 18.4L9.59988 18.4L9.59988 13.6001C9.59988 13.5299 9.61836 13.4609 9.65346 13.4001C9.68857 13.3393 9.73907 13.2888 9.79987 13.2537C9.86068 13.2186 9.92966 13.2001 9.99987 13.2001L13.9998 13.2001C14.07 13.2001 14.139 13.2186 14.1998 13.2537C14.2606 13.2888 14.3111 13.3393 14.3462 13.4001C14.3813 13.4609 14.3998 13.5299 14.3998 13.6001L14.3998 18.4Z" fill="currentColor" fill-rule="nonzero" />
</svg>
