<svg viewBox="0 0 23.8455 20" xmlns="http://www.w3.org/2000/svg" xmlns:xlink="http://www.w3.org/1999/xlink" width="23.845490" height="20.000000" fill="none" customFrame="#000000">
	<path id="Форма 38" d="M22.6917 17.6924L21.5379 17.6924L21.5379 11.9233C21.7343 11.9923 21.9458 12.0069 22.1499 11.9655C22.354 11.924 22.5431 11.8282 22.6971 11.688C22.8511 11.5478 22.9643 11.3685 23.0246 11.1692C23.085 10.9699 23.0903 10.758 23.04 10.5559C22.9897 10.3538 22.8856 10.1691 22.7388 10.0214L13.2823 0.563035C13.0436 0.324426 12.7464 0.152834 12.4204 0.0655004C12.0944 -0.0218334 11.7511 -0.0218334 11.4251 0.0655004C11.0991 0.152834 10.8019 0.324426 10.5632 0.563035L1.1067 10.0195C0.959022 10.167 0.854134 10.3519 0.803213 10.5543C0.752291 10.7568 0.757243 10.9692 0.817541 11.1691C0.87784 11.3689 0.991225 11.5487 1.14562 11.6892C1.30001 11.8296 1.48962 11.9256 1.69426 11.9669C1.89889 12.0081 2.11088 11.993 2.30763 11.9233L2.30763 17.6924L1.15381 17.6924C0.910153 17.6924 0.672746 17.7695 0.475619 17.9127C0.278493 18.056 0.131767 18.2579 0.0564717 18.4896C-0.0188239 18.7214 -0.0188239 18.971 0.0564717 19.2027C0.131767 19.4345 0.278493 19.6364 0.475619 19.7796C0.672746 19.9229 0.910153 20 1.15381 20L22.6917 20C22.9353 20 23.1728 19.9229 23.3699 19.7796C23.567 19.6364 23.7137 19.4345 23.789 19.2027C23.8643 18.971 23.8643 18.7214 23.789 18.4896C23.7137 18.2579 23.567 18.056 23.3699 17.9127C23.1728 17.7695 22.9353 17.6924 22.6917 17.6924ZM4.61526 9.77432L11.9228 2.46683L19.2302 9.77432L19.2302 17.6924L15.3842 17.6924L15.3842 12.6925C15.3842 12.49 15.3309 12.291 15.2296 12.1156C15.1283 11.9402 14.9827 11.7945 14.8073 11.6933C14.6319 11.592 14.4329 11.5387 14.2304 11.5387L9.61512 11.5387C9.41258 11.5387 9.21362 11.592 9.03821 11.6933C8.86281 11.7945 8.71716 11.9402 8.61589 12.1156C8.51462 12.291 8.46131 12.49 8.46131 12.6925L8.46131 17.6924L4.61526 17.6924L4.61526 9.77432ZM13.0766 17.6924L10.7689 17.6924L10.7689 13.8463L13.0766 13.8463L13.0766 17.6924Z" fill="currentColor" fill-rule="nonzero" />
</svg>
