<svg viewBox="0 0 20.7317 20" xmlns="http://www.w3.org/2000/svg" xmlns:xlink="http://www.w3.org/1999/xlink" width="20.731659" height="20.000000" fill="none" customFrame="#000000">
	<path id="Форма 44" d="M20.5953 18.2399C19.942 17.0931 19.1014 16.0637 18.1085 15.1941C17.1156 14.3246 15.9843 13.6271 14.7614 13.1307C15.9863 12.212 16.891 10.9313 17.3475 9.46988C17.804 8.00847 17.7892 6.44047 17.305 4.98799C16.8208 3.5355 15.8919 2.27217 14.6499 1.37695C13.4078 0.48173 11.9156 0 10.3845 0C8.85348 7.32302e-07 7.36124 0.48173 6.11918 1.37695C4.87713 2.27218 3.94823 3.53551 3.46407 4.98799C2.97991 6.44047 2.96503 8.00848 3.42154 9.46989C3.87805 10.9313 4.78281 12.212 6.00765 13.1307C4.78474 13.6271 3.65344 14.3246 2.66054 15.1941C1.66764 16.0637 0.827118 17.0931 0.173722 18.2399C0.0647123 18.4152 0.00480848 18.6165 0.000277543 18.8229C-0.0042534 19.0293 0.0467548 19.2331 0.147966 19.413C0.249178 19.5929 0.396873 19.7423 0.575602 19.8455C0.754331 19.9488 0.957525 20.0021 1.16393 19.9999C1.37033 19.9978 1.57236 19.9402 1.74888 19.8332C1.92539 19.7262 2.06991 19.5737 2.16732 19.3917C3.90655 16.3855 6.97805 14.5925 10.3845 14.5925C13.791 14.5925 16.8625 16.3864 18.6018 19.3917C18.7275 19.5939 18.9129 19.7522 19.1323 19.8447C19.3517 19.9373 19.5944 19.9595 19.827 19.9084C20.0596 19.8573 20.2706 19.7354 20.431 19.5594C20.5915 19.3835 20.6934 19.1621 20.7228 18.9258C20.7523 18.6895 20.7077 18.4499 20.5953 18.2399ZM5.39335 7.29769C5.39335 6.31052 5.68608 5.34553 6.23452 4.52473C6.78296 3.70394 7.56247 3.06421 8.47449 2.68643C9.38651 2.30866 10.3901 2.20982 11.3583 2.40241C12.3265 2.59499 13.2158 3.07036 13.9138 3.76839C14.6119 4.46641 15.0872 5.35576 15.2798 6.32395C15.4724 7.29215 15.3736 8.29571 14.9958 9.20773C14.618 10.1197 13.9783 10.8993 13.1575 11.4477C12.3367 11.9961 11.3717 12.2889 10.3845 12.2889C9.50869 12.2879 8.64849 12.0567 7.89016 11.6185C7.13182 11.1802 6.50198 10.5504 6.06377 9.79207C5.62556 9.03373 5.39436 8.17353 5.39335 7.29769Z" fill="currentColor" fill-rule="nonzero" />
</svg>
