<svg viewBox="0 0 20.796 20" xmlns="http://www.w3.org/2000/svg" xmlns:xlink="http://www.w3.org/1999/xlink" width="20.796021" height="20.000000" fill="none" customFrame="#000000">
	<path id="Форма 45" d="M20.6894 19.6001C20.6191 19.7217 20.5181 19.8227 20.3965 19.8929C20.2749 19.9631 20.1369 20 19.9965 20L0.799071 20C0.658731 19.9999 0.520898 19.9628 0.399413 19.8925C0.277929 19.8223 0.177068 19.7213 0.10696 19.5997C0.0368522 19.4781 -3.58533e-05 19.3402 0 19.1999C3.6044e-05 19.0596 0.0369949 18.9217 0.107165 18.8002C1.62996 16.1675 3.97664 14.2798 6.71527 13.3849C5.51339 12.6694 4.54597 11.6193 3.93125 10.3629C3.31653 9.10649 3.08113 7.69823 3.25382 6.31021C3.42651 4.92218 3.99982 3.61453 4.90366 2.54706C5.80751 1.47959 7.00275 0.698544 8.34331 0.299376C9.68386 -0.0997921 11.1117 -0.0997921 12.4522 0.299376C13.7928 0.698544 14.988 1.47959 15.8919 2.54706C16.7957 3.61453 17.369 4.92218 17.5417 6.31021C17.7144 7.69823 17.479 9.1065 16.8643 10.3629C16.2496 11.6193 15.2821 12.6694 14.0803 13.3849C16.8189 14.2798 19.1656 16.1675 20.6884 18.8002C20.7587 18.9217 20.7959 19.0596 20.796 19.2C20.7962 19.3404 20.7594 19.4784 20.6894 19.6001Z" fill="currentColor" fill-rule="nonzero" />
</svg>
