<svg viewBox="0 0 20 20.0009" xmlns="http://www.w3.org/2000/svg" xmlns:xlink="http://www.w3.org/1999/xlink" width="20.000000" height="20.000931" fill="none" customFrame="#000000">
	<path id="Форма 43" d="M19.6707 18.1003L15.2786 13.7064C16.3276 12.3394 16.9374 10.6865 17.0276 8.9658C17.1179 7.2451 16.6842 5.53748 15.784 4.06831C14.8837 2.59914 13.5591 1.43747 11.985 0.736618C10.411 0.0357637 8.66136 -0.171334 6.96714 0.142657C5.27293 0.456649 3.71374 1.27697 2.49536 2.49536C1.27697 3.71375 0.456647 5.27294 0.142656 6.96715C-0.171334 8.66136 0.0357645 10.411 0.73662 11.985C1.43748 13.5591 2.59914 14.8837 4.06832 15.784C5.53749 16.6842 7.2451 17.1179 8.9658 17.0276C10.6865 16.9374 12.3394 16.3276 13.7064 15.2786L18.1021 19.6753C18.2682 19.8413 18.4825 19.9505 18.7143 19.9872C18.9462 20.024 19.1838 19.9863 19.393 19.8798C19.6022 19.7732 19.7722 19.6031 19.8788 19.3939C19.9854 19.1847 20.023 18.9472 19.9863 18.7153C19.9496 18.4834 19.8404 18.2691 19.6744 18.1031L19.6707 18.1003ZM2.23829 8.52723C2.23829 7.28339 2.60713 6.06749 3.29817 5.03328C3.9892 3.99907 4.9714 3.193 6.12055 2.717C7.26971 2.24101 8.5342 2.11647 9.75414 2.35913C10.9741 2.60179 12.0947 3.20075 12.9742 4.08027C13.8537 4.9598 14.4527 6.08038 14.6953 7.30031C14.938 8.52025 14.8134 9.78474 14.3375 10.9339C13.8615 12.083 13.0554 13.0652 12.0212 13.7563C10.987 14.4473 9.77107 14.8162 8.52723 14.8162C7.42361 14.815 6.33969 14.5238 5.38412 13.9717C4.42856 13.4195 3.63492 12.6259 3.08279 11.6703C2.53065 10.7148 2.23942 9.63084 2.23829 8.52723Z" fill="currentColor" fill-rule="nonzero" />
</svg>
