<svg viewBox="0 0 19.9943 20" xmlns="http://www.w3.org/2000/svg" xmlns:xlink="http://www.w3.org/1999/xlink" width="19.994263" height="20.000000" fill="none" customFrame="#000000">
	<path id="Форма 47" d="M13.8418 8.46462C13.8418 9.52925 13.5261 10.57 12.9346 11.4552C12.3431 12.3404 11.5024 13.0303 10.5188 13.4378C9.53522 13.8452 8.4529 13.9518 7.40872 13.7441C6.36454 13.5364 5.4054 13.0237 4.65259 12.2709C3.89977 11.5181 3.3871 10.5589 3.1794 9.51477C2.9717 8.47059 3.0783 7.38827 3.48572 6.40467C3.89314 5.42108 4.58308 4.58038 5.46829 3.9889C6.3535 3.39742 7.39423 3.08172 8.45887 3.08172C9.40376 3.08172 10.332 3.33045 11.1503 3.80289C11.9686 4.27534 12.6481 4.95487 13.1206 5.77317C13.593 6.59147 13.8418 7.51972 13.8418 8.46462ZM19.7687 19.7745C19.6732 19.87 19.5543 19.9388 19.4238 19.9738C19.2934 20.0087 19.156 20.0087 19.0255 19.9738C18.895 19.9388 18.7761 19.87 18.6806 19.7745L13.8687 14.9616C12.5359 16.0704 10.8945 16.7429 9.16687 16.888C7.43922 17.0331 5.7087 16.6439 4.20959 15.7729C2.71048 14.902 1.5152 13.5914 0.785562 12.0187C0.0559251 10.446 -0.172825 8.68704 0.130281 6.98C0.433388 5.27296 1.25371 3.70029 2.48019 2.4749C3.70667 1.2495 5.28007 0.430571 6.98737 0.128975C8.69467 -0.172619 10.4534 0.0576876 12.0255 0.788716C13.5976 1.51974 14.9071 2.71619 15.7767 4.21606C16.6463 5.71594 17.034 7.4468 16.8874 9.17433C16.7407 10.9019 16.0668 12.5426 14.9568 13.8744L19.7687 18.6864C19.8643 18.7818 19.933 18.9008 19.968 19.0312C20.003 19.1617 20.003 19.2991 19.968 19.4296C19.933 19.56 19.8643 19.679 19.7687 19.7745ZM8.45887 15.3855C9.82768 15.3855 11.1658 14.9796 12.3039 14.2191C13.442 13.4586 14.3291 12.3777 14.8529 11.1131C15.3767 9.8485 15.5138 8.45694 15.2467 7.11442C14.9797 5.77191 14.3206 4.53873 13.3527 3.57083C12.3848 2.60293 11.1516 1.94378 9.80906 1.67673C8.46654 1.40969 7.07499 1.54675 5.81037 2.07057C4.54574 2.5944 3.46485 3.48146 2.70438 4.61959C1.9439 5.75772 1.538 7.0958 1.538 8.46462C1.53935 9.6791 1.8599 10.8719 2.46753 11.9234C3.07516 12.975 3.94851 13.8483 5.00006 14.456C6.0516 15.0636 7.24439 15.3841 8.45887 15.3855Z" fill="currentColor" fill-rule="nonzero" />
</svg>
