<svg viewBox="0 0 22 16.3226" xmlns="http://www.w3.org/2000/svg" xmlns:xlink="http://www.w3.org/1999/xlink" width="22.000000" height="16.322578" fill="none" customFrame="#000000">
	<path id="Форма 34" d="M16.3226 4.44524L16.3226 4.25806C16.3226 2.96113 15.3619 1.81411 13.616 1.02903C12.1417 0.365484 10.2016 0 8.16129 0C6.12097 0 4.18089 0.365484 2.70653 1.02903C0.960726 1.81411 0 2.96113 0 4.25806L0 7.80645C0 9.10339 0.960726 10.2504 2.70653 11.0355C3.65525 11.446 4.65427 11.7288 5.67742 11.8765L5.67742 12.0645C5.67742 13.3615 6.63814 14.5085 8.38395 15.2935C9.85831 15.9571 11.7984 16.3226 13.8387 16.3226C15.879 16.3226 17.8191 15.9571 19.2935 15.2935C21.0393 14.5085 22 13.3615 22 12.0645L22 8.51613C22 6.5521 19.7565 4.97484 16.3226 4.44524ZM19.871 8.51613C19.871 9.20363 17.9398 10.5103 14.3878 10.6345C15.6422 9.88226 16.3226 8.89758 16.3226 7.80645L16.3226 6.60355C18.6184 7.02137 19.871 7.93774 19.871 8.51613ZM9.16992 9.90266C8.8479 9.92395 8.51169 9.93548 8.16129 9.93548C7.71064 9.93548 7.28395 9.91597 6.88121 9.88137C6.84766 9.87695 6.81391 9.87428 6.78008 9.87339C6.64613 9.86097 6.51395 9.84677 6.3871 9.83081L6.3871 8.42121C6.97637 8.48452 7.56862 8.51621 8.16129 8.51613C8.75396 8.51621 9.34621 8.48452 9.93548 8.42121L9.93548 9.8308C9.7146 9.85742 9.48573 9.88048 9.24798 9.89734C9.22581 9.89822 9.19565 9.9 9.16992 9.90266ZM14.1935 7.1979L14.1935 7.80645C14.1935 8.23048 13.459 8.8896 12.0645 9.36242L12.0645 8.03177C12.5954 7.89243 13.1143 7.71058 13.616 7.48798C13.8195 7.39632 14.012 7.29962 14.1935 7.1979ZM8.16129 2.12903C12.0645 2.12903 14.1935 3.53508 14.1935 4.25806C14.1935 4.98105 12.0645 6.3871 8.16129 6.3871C4.25806 6.3871 2.12903 4.98105 2.12903 4.25806C2.12903 3.53508 4.25806 2.12903 8.16129 2.12903ZM2.12903 7.80645L2.12903 7.1979C2.31118 7.29903 2.50368 7.39543 2.70653 7.4871C3.20828 7.70969 3.72714 7.89154 4.25806 8.03089L4.25806 9.36153C2.86355 8.8896 2.12903 8.23048 2.12903 7.80645ZM7.80645 12.0645C7.92444 12.0645 8.04242 12.0645 8.16129 12.0645C8.48301 12.0645 8.80148 12.0551 9.11669 12.0361C9.37987 12.129 9.6528 12.2135 9.93548 12.2898L9.93548 13.6205C8.54097 13.1477 7.80645 12.4885 7.80645 12.0645ZM12.0645 14.0889L12.0645 12.6802C12.6538 12.7433 13.2461 12.7747 13.8387 12.7742C14.4314 12.7743 15.0236 12.7426 15.6129 12.6793L15.6129 14.0889C14.4342 14.2284 13.2432 14.2284 12.0645 14.0889L12.0645 14.0889ZM17.7419 13.6205L17.7419 12.2898C18.2729 12.1505 18.7917 11.9686 19.2935 11.746C19.4969 11.655 19.6894 11.5586 19.871 11.4569L19.871 12.0645C19.871 12.4885 19.1365 13.1477 17.7419 13.6205L17.7419 13.6205Z" fill="currentColor" fill-rule="nonzero" />
</svg>
