<svg viewBox="0 0 22 18.4521" xmlns="http://www.w3.org/2000/svg" xmlns:xlink="http://www.w3.org/1999/xlink" width="22.000000" height="18.452118" fill="none" customFrame="#000000">
	<path id="Форма 38" d="M20.9355 16.3231L19.871 16.3231L19.871 11.0005C20.0522 11.0642 20.2474 11.0776 20.4356 11.0394C20.6239 11.0012 20.7984 10.9127 20.9405 10.7834C21.0825 10.6541 21.187 10.4887 21.2427 10.3048C21.2984 10.1209 21.3033 9.92538 21.2568 9.73895C21.2104 9.55251 21.1144 9.38211 20.979 9.24583L12.2544 0.51946C12.0341 0.299317 11.7599 0.141006 11.4591 0.0604311C11.1583 -0.0201436 10.8417 -0.0201436 10.5409 0.0604311C10.2401 0.141006 9.96585 0.299317 9.74564 0.51946L1.02105 9.24405C0.884799 9.38017 0.788029 9.5507 0.741049 9.73747C0.694068 9.92424 0.698637 10.1203 0.754269 10.3046C0.8099 10.489 0.91451 10.6549 1.05695 10.7845C1.1994 10.9141 1.37433 11.0026 1.56313 11.0407C1.75193 11.0787 1.94751 11.0648 2.12903 11.0005L2.12903 16.3231L1.06452 16.3231C0.839712 16.3231 0.620679 16.3943 0.438809 16.5264C0.256939 16.6585 0.121569 16.8448 0.0521012 17.0586C-0.0173671 17.2725 -0.0173671 17.5028 0.0521011 17.7166C0.121569 17.9304 0.256939 18.1167 0.438809 18.2488C0.620679 18.3809 0.839712 18.4521 1.06452 18.4521L20.9355 18.4521C21.1603 18.4521 21.3793 18.3809 21.5612 18.2488C21.7431 18.1167 21.8784 17.9304 21.9479 17.7166C22.0174 17.5028 22.0174 17.2725 21.9479 17.0586C21.8784 16.8448 21.7431 16.6585 21.5612 16.5264C21.3793 16.3943 21.1603 16.3231 20.9355 16.3231ZM4.25806 9.01785L11 2.27591L17.7419 9.01785L17.7419 16.3231L14.1935 16.3231L14.1935 11.7102C14.1935 11.5233 14.1444 11.3398 14.0509 11.1779C13.9575 11.0161 13.8231 10.8817 13.6613 10.7883C13.4995 10.6949 13.3159 10.6457 13.129 10.6457L8.87097 10.6457C8.68411 10.6457 8.50054 10.6949 8.33871 10.7883C8.17688 10.8817 8.0425 11.0161 7.94907 11.1779C7.85564 11.3398 7.80645 11.5233 7.80645 11.7102L7.80645 16.3231L4.25806 16.3231L4.25806 9.01785ZM12.0645 16.3231L9.93548 16.3231L9.93548 12.7747L12.0645 12.7747L12.0645 16.3231Z" fill="currentColor" fill-rule="nonzero" />
</svg>
