<svg viewBox="0 0 16.875 16.875" xmlns="http://www.w3.org/2000/svg" xmlns:xlink="http://www.w3.org/1999/xlink" width="16.875000" height="16.875008" fill="none" customFrame="#000000">
	<path id="Форма 48" d="M6.875 5C6.875 4.75277 6.94832 4.5111 7.08567 4.30554C7.22302 4.09998 7.41824 3.93976 7.64665 3.84515C7.87506 3.75054 8.12639 3.72579 8.36887 3.77402C8.61134 3.82225 8.83407 3.9413 9.00889 4.11612C9.1837 4.29093 9.30275 4.51366 9.35099 4.75614C9.39922 4.99861 9.37446 5.24995 9.27985 5.47835C9.18524 5.70676 9.02503 5.90198 8.81947 6.03934C8.61391 6.17669 8.37223 6.25 8.125 6.25C7.90558 6.25 7.69003 6.19224 7.5 6.08253C7.30998 5.97282 7.15218 5.81502 7.04247 5.625C6.93276 5.43498 6.875 5.21942 6.875 5ZM16.875 8.4375C16.875 10.1063 16.3802 11.7376 15.453 13.1251C14.5259 14.5127 13.2081 15.5941 11.6664 16.2327C10.1246 16.8713 8.42814 17.0384 6.79143 16.7129C5.15472 16.3873 3.6513 15.5837 2.47129 14.4037C1.29128 13.2237 0.487691 11.7203 0.162128 10.0836C-0.163435 8.44686 0.00365603 6.75036 0.642271 5.20861C1.28089 3.66686 2.36234 2.3491 3.74988 1.42197C5.13742 0.49485 6.76872 0 8.4375 0C9.91812 0.00164211 11.3723 0.39244 12.6543 1.13322C13.9363 1.87401 15.001 2.93875 15.7418 4.22073C16.4826 5.50271 16.8734 6.95688 16.875 8.4375ZM15 8.4375C15 7.13956 14.6151 5.87077 13.894 4.79157C13.1729 3.71237 12.148 2.87124 10.9489 2.37454C9.74972 1.87784 8.43022 1.74788 7.15722 2.0011C5.88422 2.25431 4.7149 2.87933 3.79712 3.79711C2.87933 4.71489 2.25432 5.88422 2.0011 7.15722C1.74788 8.43022 1.87784 9.74972 2.37454 10.9489C2.87125 12.148 3.71238 13.1729 4.79158 13.894C5.87077 14.6151 7.13956 15 8.4375 15C9.58911 14.9988 10.7202 14.6948 11.7173 14.1187C12.7144 13.5425 13.5425 12.7144 14.1187 11.7173C14.6948 10.7202 14.9988 9.5891 15 8.4375ZM9.375 11.3031L9.375 8.75C9.375 8.47572 9.30281 8.20628 9.16567 7.96875C9.02853 7.73122 8.83128 7.53397 8.59375 7.39684C8.35622 7.2597 8.08678 7.1875 7.8125 7.1875C7.63604 7.18724 7.46309 7.23678 7.31354 7.33044C7.16398 7.42409 7.04389 7.55805 6.96708 7.71692C6.89027 7.87578 6.85986 8.0531 6.87933 8.22848C6.89881 8.40387 6.96739 8.57019 7.07719 8.70833C7.18699 8.84647 7.33354 8.95082 7.5 9.00938L7.5 11.5625C7.5 11.8368 7.5722 12.1062 7.70934 12.3438C7.84648 12.5813 8.04372 12.7785 8.28125 12.9157C8.51878 13.0528 8.78823 13.125 9.0625 13.125C9.23896 13.1253 9.41192 13.0757 9.56147 12.9821C9.71103 12.8884 9.83112 12.7544 9.90793 12.5956C9.98474 12.4367 10.0152 12.2594 9.99567 12.084C9.9762 11.9086 9.90761 11.7423 9.79782 11.6042C9.68802 11.466 9.54147 11.3617 9.375 11.3031Z" fill="currentColor" fill-rule="nonzero" />
</svg>
