<svg viewBox="0 0 20 18.8889" xmlns="http://www.w3.org/2000/svg" xmlns:xlink="http://www.w3.org/1999/xlink" width="20.000000" height="18.888885" fill="none" customFrame="#000000">
	<path id="Форма 35" d="M7.40741 8.14815C7.40741 7.95311 7.45875 7.7615 7.55627 7.59259C7.65379 7.42368 7.79405 7.28342 7.96296 7.1859C8.13187 7.08838 8.32348 7.03704 8.51852 7.03704L11.4815 7.03704C11.7161 7.03704 11.9447 7.11132 12.1346 7.24924C12.3244 7.38716 12.4657 7.58164 12.5382 7.80479C12.6107 8.02795 12.6107 8.26834 12.5382 8.4915C12.4657 8.71466 12.3244 8.90913 12.1346 9.04706C11.9447 9.18497 11.7161 9.25926 11.4815 9.25926L8.51852 9.25926C8.32348 9.25926 8.13187 9.20792 7.96296 9.1104C7.79405 9.01288 7.65379 8.87261 7.55627 8.7037C7.45875 8.53479 7.40741 8.34319 7.40741 8.14815ZM20 5.18518L20 17.037C20 17.3621 19.9144 17.6814 19.7519 17.963C19.5894 18.2445 19.3556 18.4783 19.0741 18.6408C18.7926 18.8033 18.4732 18.8889 18.1481 18.8889L1.85185 18.8889C1.52678 18.8889 1.20744 18.8033 0.925926 18.6408C0.644409 18.4783 0.410635 18.2445 0.248101 17.963C0.0855672 17.6814 0 17.3621 0 17.037L0 5.18518C0 4.86012 0.0855674 4.54078 0.248101 4.25926C0.410635 3.97774 0.644409 3.74397 0.925926 3.58143C1.20744 3.4189 1.52678 3.33333 1.85185 3.33333L5.18518 3.33333L5.18518 2.59259C5.18518 2.1375 5.30498 1.69042 5.53253 1.2963C5.76007 0.902172 6.08736 0.574889 6.48148 0.347341C6.87561 0.119794 7.32268 0 7.77778 0L12.2222 0C12.6773 0 13.1244 0.119794 13.5185 0.347341C13.9126 0.574889 14.2399 0.902172 14.4675 1.2963C14.695 1.69042 14.8148 2.1375 14.8148 2.59259L14.8148 3.33333L18.1481 3.33333C18.4732 3.33333 18.7926 3.4189 19.0741 3.58143C19.3556 3.74397 19.5894 3.97774 19.7519 4.25926C19.9144 4.54078 20 4.86012 20 5.18518ZM7.40741 3.33333L12.5926 3.33333L12.5926 2.59259C12.5926 2.52758 12.5755 2.46371 12.543 2.40741C12.5105 2.3511 12.4637 2.30435 12.4074 2.27184C12.3511 2.23934 12.2872 2.22222 12.2222 2.22222L7.77778 2.22222C7.71276 2.22222 7.6489 2.23934 7.59259 2.27184C7.53629 2.30435 7.48953 2.3511 7.45703 2.40741C7.42452 2.46371 7.40741 2.52758 7.40741 2.59259L7.40741 3.33333ZM2.22222 5.55555L2.22222 8.81759C4.61995 10.0813 7.28963 10.7414 10 10.7407C12.7105 10.7414 15.3802 10.0809 17.7778 8.81667L17.7778 5.55555L2.22222 5.55555ZM17.7778 16.6667L17.7778 11.2907C15.3331 12.3933 12.6818 12.9633 10 12.963C7.31816 12.9634 4.66689 12.3934 2.22222 11.2907L2.22222 16.6667L17.7778 16.6667Z" fill="currentColor" fill-rule="nonzero" />
</svg>
