<svg viewBox="0 0 22 17.461" xmlns="http://www.w3.org/2000/svg" xmlns:xlink="http://www.w3.org/1999/xlink" width="22.000000" height="17.460953" fill="none" customFrame="#000000">
	<path id="Форма 33" d="M21.9669 1.01687C21.9569 0.847252 21.9057 0.682616 21.8179 0.537164C21.73 0.391712 21.6081 0.269809 21.4627 0.181966C21.3172 0.0941228 21.1526 0.0429759 20.983 0.0329362C16.3322 -0.240332 12.5841 1.19934 10.9567 3.88662C9.89685 5.63274 9.86018 7.74293 10.8293 9.76231C10.3576 10.3641 9.99478 11.0436 9.75716 11.7704L8.65186 10.6651C9.27959 9.20094 9.21324 7.68705 8.44233 6.41413C7.22179 4.39649 4.44197 3.31739 1.00735 3.51557C0.837638 3.52562 0.672918 3.57683 0.527414 3.66477C0.38191 3.7527 0.259992 3.87473 0.172184 4.02031C0.0843765 4.16589 0.0333175 4.33066 0.0234143 4.50038C-0.175643 7.935 0.903459 10.7148 2.91935 11.9354C3.60306 12.3521 4.38863 12.5717 5.18931 12.5701C5.87195 12.5645 6.54629 12.4198 7.17116 12.1449L9.42802 14.4052L9.42802 16.4133C9.42802 16.6345 9.49806 16.8501 9.6281 17.0291C9.75815 17.2081 9.94152 17.3413 10.1519 17.4097C10.3624 17.478 10.589 17.478 10.7994 17.4097C11.0099 17.3413 11.1932 17.2081 11.3233 17.0291C11.4533 16.8501 11.5234 16.6345 11.5234 16.4133L11.5234 13.8386C11.5212 12.9021 11.8108 11.9882 12.3519 11.2238C13.2284 11.639 14.1846 11.8591 15.1544 11.869C16.1979 11.8714 17.2218 11.5856 18.1132 11.0431C20.7996 9.41571 22.241 5.66766 21.9669 1.01687ZM4.00457 10.143C2.853 9.44452 2.15543 7.74555 2.09868 5.59171C4.25252 5.64845 5.95236 6.34603 6.64994 7.4976C6.78534 7.71784 6.88212 7.95959 6.93611 8.21243C6.9901 8.46526 7.0005 8.72546 6.96686 8.9818L5.97768 7.98913C5.82097 7.83241 5.61866 7.72933 5.39976 7.69466C5.18086 7.65999 4.9566 7.69551 4.75912 7.79613C4.56165 7.89675 4.4011 8.0573 4.30048 8.25477C4.19986 8.45225 4.16434 8.6765 4.19901 8.89541C4.23368 9.11431 4.33677 9.31661 4.49348 9.47333L5.48353 10.4634C5.22784 10.4949 4.96866 10.4832 4.71686 10.4287C4.46507 10.3741 4.22427 10.2775 4.00457 10.143ZM17.028 9.25419C16.0973 9.81732 15.02 9.92383 13.9016 9.58246L17.1537 6.33119C17.3104 6.17447 17.4135 5.97216 17.4482 5.75326C17.4829 5.53436 17.4473 5.3101 17.3467 5.11263C17.2461 4.91515 17.0856 4.7546 16.8881 4.65399C16.6906 4.55337 16.4663 4.51785 16.2474 4.55252C16.0285 4.58719 15.8262 4.69027 15.6695 4.84699L12.4174 8.09826C12.0795 6.98424 12.186 5.90252 12.7456 4.9762C13.8544 3.14277 16.4692 2.0951 19.8454 2.0951L19.9047 2.0951C19.917 5.50004 18.8693 8.13493 17.028 9.25419Z" fill="currentColor" fill-rule="nonzero" />
</svg>
