<svg viewBox="0 0 15.8333 15.7143" xmlns="http://www.w3.org/2000/svg" xmlns:xlink="http://www.w3.org/1999/xlink" width="15.833344" height="15.714279" fill="none" customFrame="#000000">
	<path id="no result icon" d="M0 7.85714C0 3.52785 3.5528 0 7.91271 0C12.2726 0 15.8333 3.52785 15.8333 7.85714C15.8333 12.1864 12.2805 15.7143 7.92063 15.7143L0.799191 15.7143C0.498504 15.7143 0.229475 15.5493 0.0949486 15.29C-0.0474743 15.0307 -0.0237372 14.7243 0.142423 14.4808L1.52715 12.4929C0.538058 11.1492 0 9.52285 0 7.85714ZM2.3026 14.1429L7.92063 14.1429C11.4101 14.1429 14.2508 11.3222 14.2508 7.85714C14.2508 4.39211 11.4101 1.57143 7.92063 1.57143C4.43112 1.57143 1.59046 4.39211 1.59046 7.85714C1.58986 8.60219 1.72301 9.34148 1.98366 10.0402C2.24433 10.7388 2.6283 11.3859 3.11761 11.9507C3.34708 12.2179 3.37082 12.6186 3.16508 12.9093L2.3026 14.1429ZM5.95415 4.74197C5.43449 5.26011 5.14326 5.94983 5.14326 6.67857L6.7258 6.67857C6.7258 6.36436 6.85241 6.06578 7.07396 5.84576C7.52499 5.39785 8.30042 5.39785 8.75145 5.84576C8.91761 6.01044 9.03084 6.2204 9.07677 6.44895C9.1227 6.67761 9.09928 6.91461 9.00947 7.12993C8.91964 7.34535 8.76749 7.52941 8.57225 7.65889C8.37702 7.78837 8.14747 7.85733 7.91271 7.85714C7.47752 7.85714 7.12144 8.21077 7.12144 8.64285L7.12144 9.42857L8.70398 9.42857L8.70398 9.31865C9.13917 9.19291 9.54272 8.95716 9.86715 8.62722C10.3894 8.10862 10.6822 7.41719 10.6822 6.68643C10.6822 5.95577 10.3973 5.26434 9.86715 4.74574C8.82393 3.7099 6.99927 3.70864 5.95415 4.74197ZM7.12144 11.7857L7.12144 10.2143L8.70398 10.2143L8.70398 11.7857L7.12144 11.7857Z" fill="currentColor" fill-rule="evenodd" />
</svg>
