<svg viewBox="0 0 16.875 16.875" xmlns="http://www.w3.org/2000/svg" xmlns:xlink="http://www.w3.org/1999/xlink" width="16.875000" height="16.875008" fill="none" customFrame="#000000">
	<path id="Форма 49" d="M9.6875 12.5C9.6875 12.7472 9.61419 12.9889 9.47684 13.1945C9.33949 13.4 9.14427 13.5602 8.91586 13.6549C8.68745 13.7495 8.43612 13.7742 8.19364 13.726C7.95117 13.6777 7.72844 13.5587 7.55362 13.3839C7.37881 13.2091 7.25975 12.9863 7.21152 12.7439C7.16329 12.5014 7.18805 12.2501 7.28265 12.0216C7.37726 11.7932 7.53748 11.598 7.74304 11.4607C7.9486 11.3233 8.19028 11.25 8.4375 11.25C8.65693 11.25 8.87248 11.3078 9.0625 11.4175C9.25253 11.5272 9.41033 11.685 9.52004 11.875C9.62975 12.065 9.6875 12.2806 9.6875 12.5ZM16.875 8.4375C16.875 10.1063 16.3802 11.7376 15.453 13.1251C14.5259 14.5127 13.2081 15.5941 11.6664 16.2327C10.1246 16.8713 8.42814 17.0384 6.79143 16.7129C5.15472 16.3873 3.6513 15.5837 2.47129 14.4037C1.29128 13.2237 0.487691 11.7203 0.162128 10.0836C-0.163435 8.44686 0.00365603 6.75036 0.642271 5.20861C1.28089 3.66686 2.36234 2.3491 3.74988 1.42197C5.13742 0.49485 6.76872 0 8.4375 0C9.91812 0.00164211 11.3723 0.39244 12.6543 1.13322C13.9363 1.87401 15.001 2.93875 15.7418 4.22073C16.4826 5.50271 16.8734 6.95688 16.875 8.4375ZM15 8.4375C15 7.13956 14.6151 5.87077 13.894 4.79157C13.1729 3.71237 12.148 2.87124 10.9489 2.37454C9.74972 1.87784 8.43022 1.74788 7.15722 2.0011C5.88422 2.25431 4.7149 2.87933 3.79712 3.79711C2.87933 4.71489 2.25432 5.88422 2.0011 7.15722C1.74788 8.43022 1.87784 9.74972 2.37454 10.9489C2.87125 12.148 3.71238 13.1729 4.79158 13.894C5.87077 14.6151 7.13956 15 8.4375 15C9.58911 14.9988 10.7202 14.6948 11.7173 14.1187C12.7144 13.5425 13.5425 12.7144 14.1187 11.7173C14.6948 10.7202 14.9988 9.5891 15 8.4375ZM8.4375 3.4375C6.54219 3.4375 5 4.83906 5 6.5625L5 6.875C5 7.07298 5.06268 7.26588 5.17905 7.42605C5.29542 7.58622 5.45951 7.70544 5.6478 7.76661C5.83609 7.82779 6.03892 7.82779 6.22721 7.76662C6.4155 7.70544 6.57959 7.58622 6.69596 7.42605C6.81233 7.26588 6.875 7.07298 6.875 6.875L6.875 6.5625C6.875 5.87344 7.57813 5.3125 8.4375 5.3125C9.29688 5.3125 10 5.87344 10 6.5625C10 7.25156 9.29688 7.8125 8.4375 7.8125C8.27294 7.8125 8.11127 7.85582 7.96875 7.9381C7.82624 8.02038 7.70789 8.13873 7.62561 8.28125C7.54332 8.42377 7.5 8.58543 7.5 8.75L7.5 9.375C7.49956 9.55954 7.55359 9.74011 7.65532 9.89408C7.75705 10.048 7.90196 10.1686 8.07189 10.2405C8.24182 10.3125 8.42921 10.3327 8.61058 10.2986C8.79195 10.2646 8.95923 10.1777 9.09146 10.049C9.22369 9.92028 9.31499 9.75539 9.35391 9.575C10.8055 9.20938 11.875 7.99766 11.875 6.5625C11.875 4.83906 10.3328 3.4375 8.4375 3.4375Z" fill="currentColor" fill-rule="nonzero" />
</svg>
