<svg viewBox="0 0 22 18.9655" xmlns="http://www.w3.org/2000/svg" xmlns:xlink="http://www.w3.org/1999/xlink" width="22.000000" height="18.965485" fill="none" customFrame="#000000">
	<path id="Форма 32" d="M21.9184 9.81843L18.884 2.23224C18.8174 2.06635 18.7128 1.91846 18.5784 1.80056C18.4441 1.68266 18.2839 1.59806 18.1108 1.55361C17.9377 1.50917 17.7565 1.50613 17.582 1.54474L12.1379 2.75L12.1379 1.13793C12.1379 0.897622 12.0619 0.663484 11.9206 0.469071C11.7794 0.274659 11.5802 0.129953 11.3517 0.0556943C11.1231 -0.0185648 10.8769 -0.0185648 10.6484 0.0556943C10.4198 0.129953 10.2207 0.274659 10.0794 0.469071C9.93816 0.663484 9.86208 0.897622 9.86208 1.13793L9.86208 3.25922L3.92588 4.57922C3.74516 4.6193 3.57694 4.70286 3.43582 4.82267C3.2947 4.94247 3.18494 5.09489 3.11606 5.26672L0.0815759 12.8453C0.0267585 12.9822 -0.00093871 13.1284 2.42365e-05 13.2758C2.42365e-05 14.4261 0.587955 15.4028 1.65476 16.0258C2.42437 16.4564 3.29059 16.6848 4.17243 16.6896C5.05428 16.6848 5.92049 16.4564 6.6901 16.0258C7.75691 15.4028 8.34484 14.4261 8.34484 13.2758C8.34483 13.131 8.31715 12.9874 8.26329 12.8529L5.72571 6.5099L9.86208 5.59482L9.86208 16.6896L8.72415 16.6896C8.48385 16.6896 8.24971 16.7657 8.05529 16.907C7.86088 17.0482 7.71618 17.2474 7.64192 17.4759C7.56766 17.7045 7.56766 17.9507 7.64192 18.1792C7.71618 18.4077 7.86088 18.6069 8.05529 18.7482C8.24971 18.8894 8.48385 18.9655 8.72415 18.9655L13.2759 18.9655C13.5162 18.9655 13.7503 18.8894 13.9447 18.7482C14.1391 18.6069 14.2838 18.4077 14.3581 18.1792C14.4324 17.9507 14.4324 17.7045 14.3581 17.4759C14.2838 17.2474 14.1391 17.0482 13.9447 16.907C13.7503 16.7657 13.5162 16.6896 13.2759 16.6896L12.1379 16.6896L12.1379 5.0856L15.9709 4.23215L13.7367 9.81748C13.6828 9.95228 13.6551 10.0962 13.6552 10.2414C13.6552 11.3916 14.2431 12.3683 15.3099 12.9914C16.0775 13.4271 16.945 13.6561 17.8276 13.6561C18.7102 13.6561 19.5777 13.4271 20.3453 12.9914C21.4121 12.3683 22 11.3916 22 10.2414C22 10.0965 21.9723 9.95293 21.9184 9.81843ZM4.17243 14.4138C3.82062 14.4138 2.46554 14.2364 2.2939 13.4484L4.17243 8.75352L6.05097 13.4484C5.87933 14.2364 4.52424 14.4138 4.17243 14.4138ZM17.8276 11.3793C17.4758 11.3793 16.1207 11.202 15.9491 10.414L17.8276 5.71904L19.7061 10.4139C19.5345 11.202 18.1794 11.3793 17.8276 11.3793Z" fill="currentColor" fill-rule="nonzero" />
</svg>
