<svg viewBox="0 0 22 19.9394" xmlns="http://www.w3.org/2000/svg" xmlns:xlink="http://www.w3.org/1999/xlink" width="22.000000" height="19.939384" fill="none" customFrame="#000000">
	<path id="Форма 36" d="M21.468 5.62887L11.4985 0.128466C11.3458 0.0441986 11.1743 0 11 0C10.8257 0 10.6542 0.0441986 10.5015 0.128466L0.532038 5.62887C0.37084 5.71806 0.236475 5.8488 0.142911 6.0075C0.049347 6.16619 0 6.34706 0 6.53128C0 6.71551 0.0493471 6.89637 0.142911 7.05507C0.236475 7.21377 0.37084 7.34451 0.532038 7.43369L2.40561 8.46502L2.40561 12.5697C2.40528 12.7792 2.44345 12.9869 2.51823 13.1826C2.593 13.3783 2.70311 13.5586 2.84307 13.7145C4.00675 15.0148 6.61686 17.1892 11 17.1892C12.1641 17.1954 13.3226 17.0289 14.4378 16.695L14.4378 18.9081C14.4378 19.1259 14.5067 19.3381 14.6347 19.5143C14.7627 19.6905 14.9432 19.8216 15.1504 19.8889C15.3575 19.9562 15.5806 19.9562 15.7878 19.8889C15.9949 19.8216 16.1754 19.6905 16.3034 19.5143C16.4315 19.3381 16.5004 19.1259 16.5004 18.9081L16.5004 15.8244C17.4965 15.2742 18.3942 14.5624 19.1569 13.7179C19.2969 13.562 19.407 13.3818 19.4818 13.1861C19.5566 12.9904 19.5947 12.7826 19.5944 12.5731L19.5944 8.46846L21.468 7.43713C21.6292 7.34794 21.7635 7.2172 21.8571 7.05851C21.9507 6.89981 22 6.71895 22 6.53472C22 6.35049 21.9507 6.16963 21.8571 6.01093C21.7635 5.85224 21.6292 5.7215 21.468 5.63231L21.468 5.62887ZM11 2.21003L18.8346 6.53214L15.9847 8.10491C15.9794 8.10178 15.9742 8.09834 15.9693 8.0946L11.5002 5.62887C11.3102 5.53066 11.0943 5.49397 10.8825 5.52386C10.6707 5.55376 10.4735 5.64878 10.318 5.79575C10.1626 5.94272 10.0568 6.13438 10.0151 6.34418C9.97343 6.55398 9.99803 6.77155 10.0855 6.96675C10.173 7.16195 10.3189 7.32513 10.5032 7.43369L13.8551 9.28063L11 10.8551L3.16536 6.53214L11 2.21003ZM11 15.1265C7.52615 15.1265 5.44373 13.4876 4.46827 12.4391L4.46827 9.60292L10.5015 12.9324C10.6542 13.0166 10.8257 13.0608 11 13.0608C11.1743 13.0608 11.3458 13.0166 11.4985 12.9324L14.4378 11.3141L14.4378 14.5137C13.3396 14.9288 12.174 15.1366 11 15.1265ZM17.5317 12.4391C17.2155 12.778 16.8704 13.0889 16.5004 13.3681L16.5004 10.1753L17.5317 9.60635L17.5317 12.4391Z" fill="currentColor" fill-rule="nonzero" />
</svg>
