<svg viewBox="0 0 20.0001 19" xmlns="http://www.w3.org/2000/svg" xmlns:xlink="http://www.w3.org/1999/xlink" width="20.000061" height="19.000000" fill="none" customFrame="#000000">
	<path id="suggest icon" d="M2.5 16C2.18323 16 1.87459 16.1003 1.61832 16.2865C1.36205 16.4727 1.1713 16.7352 1.07342 17.0365C0.975528 17.3377 0.975528 17.6623 1.07342 17.9635C1.1713 18.2648 1.36205 18.5273 1.61832 18.7135C1.87459 18.8997 2.18323 19 2.5 19C2.81677 19 3.12541 18.8997 3.38168 18.7135C3.63795 18.5273 3.8287 18.2648 3.92658 17.9635C4.02447 17.6623 4.02447 17.3377 3.92658 17.0365C3.8287 16.7352 3.63795 16.4727 3.38168 16.2865C3.12541 16.1003 2.81677 16 2.5 16ZM16.55 4.14C16.074 2.92216 15.2422 1.87588 14.1631 1.13745C13.084 0.399026 11.8076 0.00266647 10.5 0C8.71 0 7.03 0.73 5.8 2.02C3.71 1.81 2 3.48 2 5.5C2 5.58 2 5.67 2.01 5.75C0.77 6.57 0 7.97 0 9.5C0 11.03 0.83 12.51 2.15 13.32C2.54 14.45 3.76 15.19 4.96 14.95C6.52 16.17 8.78 16.32 10.5 15.31C11.26 15.76 12.11 16 13 16C15.26 16 17.2 14.5 17.8 12.36C19.15 11.55 20 10.09 20 8.5C20.0036 7.82993 19.8558 7.1677 19.5677 6.56272C19.2795 5.95775 18.8585 5.42566 18.336 5.00616C17.8135 4.58665 17.2029 4.29057 16.55 4.14ZM16.52 10.78L16.04 11L15.95 11.52C15.8709 11.9809 15.6846 12.4167 15.4062 12.7924C15.1277 13.1681 14.7649 13.4731 14.3469 13.6829C13.929 13.8926 13.4676 14.0013 13 14C12.32 14 11.68 13.77 11.13 13.32L10.5 12.81L9.87 13.32C8.68 14.28 6.95 14.17 5.9 13.12L5.38 12.6L4.73 12.94C4.38 13.12 4.05 12.88 4.02 12.55L3.96 11.99L3.45 11.75C2.56 11.33 2.01 10.47 2.01 9.5C2.01 8.53 2.61 7.59 3.54 7.2L4.39 6.84L4.1 5.97C4.04 5.79 4.01 5.64 4.01 5.5C4.01 4.67 4.68 4 5.51 4C5.63 4 5.75 4.02 5.92 4.07L6.56 4.25L6.97 3.72C7.83 2.62 9.12 2 10.51 2C12.52 2 14.3 3.36 14.84 5.3L15.03 5.97L15.72 6.03C17.02 6.14 18.01 7.2 18.01 8.5C18.01 9.48 17.43 10.37 16.53 10.78L16.52 10.78Z" fill="currentColor" fill-rule="nonzero" />
</svg>
