<svg viewBox="0 0 16 13.4418" xmlns="http://www.w3.org/2000/svg" xmlns:xlink="http://www.w3.org/1999/xlink" width="16.000000" height="13.441815" fill="none" customFrame="#000000">
	<path id="Форма 50" d="M15.7165 7.40119L9.95748 13.1602C9.8139 13.3038 9.62856 13.3982 9.42801 13.43C9.22746 13.4617 9.02201 13.4292 8.84109 13.337C8.66017 13.2448 8.51308 13.0977 8.4209 12.9168C8.32872 12.7359 8.29618 12.5305 8.32794 12.3299C8.3597 12.1294 8.45414 11.944 8.59772 11.8004L12.7178 7.68194L0.959834 7.68194C0.757137 7.68194 0.559643 7.61777 0.395658 7.49863C0.231673 7.37949 0.109615 7.21149 0.0469777 7.01871C-0.0156592 6.82594 -0.0156592 6.61828 0.0469777 6.4255C0.109614 6.23273 0.231672 6.06473 0.395658 5.94558C0.559643 5.82644 0.757137 5.76227 0.959834 5.76227L12.7178 5.76227L8.59932 1.64138C8.45574 1.49781 8.3613 1.31246 8.32954 1.11191C8.29777 0.911363 8.33031 0.705907 8.4225 0.524989C8.51468 0.344071 8.66177 0.196981 8.84269 0.104798C9.0236 0.0126159 9.22906 -0.0199252 9.42961 0.0118388C9.63016 0.0436027 9.8155 0.138041 9.95908 0.281618L15.7181 6.04063C15.8377 6.15998 15.9237 6.30881 15.9674 6.47206C16.0111 6.63531 16.0109 6.8072 15.9668 6.97034C15.9228 7.13349 15.8364 7.28211 15.7165 7.40119Z" fill="currentColor" fill-rule="nonzero" />
</svg>
