<svg viewBox="0 0 16 11.6912" xmlns="http://www.w3.org/2000/svg" xmlns:xlink="http://www.w3.org/1999/xlink" width="16.000000" height="11.691174" fill="none" customFrame="#000000">
	<path id="Форма 52" d="M15.7277 1.57652L5.88447 11.4198C5.76988 11.5348 5.62697 11.6175 5.47018 11.6596C5.31338 11.7017 5.14826 11.7017 4.99147 11.6596C4.83467 11.6175 4.69177 11.5348 4.57717 11.4198L0.270753 7.11334C0.132715 6.9753 0.0419202 6.79711 0.011382 6.6043C-0.0191564 6.41148 0.0121292 6.21395 0.100755 6.04002C0.189381 5.86608 0.330796 5.72466 0.504734 5.63604C0.678672 5.54741 0.876202 5.51613 1.06901 5.54666C1.26183 5.5772 1.44002 5.668 1.57806 5.80604L5.23159 9.45957L14.4219 0.270753C14.56 0.132715 14.7382 0.0419205 14.931 0.011382C15.1238 -0.0191564 15.3213 0.0121295 15.4953 0.100755C15.6692 0.189381 15.8106 0.330797 15.8992 0.504734C15.9879 0.678672 16.0192 0.876202 15.9886 1.06901C15.9581 1.26183 15.8673 1.44002 15.7292 1.57806L15.7277 1.57652Z" fill="currentColor" fill-rule="nonzero" />
</svg>
