<svg viewBox="0 0 12 12.0007" xmlns="http://www.w3.org/2000/svg" xmlns:xlink="http://www.w3.org/1999/xlink" width="12.000000" height="12.000716" fill="none" customFrame="#000000">
	<path id="Форма 53" d="M11.7472 10.5355C11.8753 10.6636 11.9597 10.8291 11.988 11.0081C12.0164 11.1872 11.9873 11.3706 11.905 11.5321C11.8227 11.6936 11.6914 11.8249 11.5299 11.9072C11.3684 11.9895 11.185 12.0185 11.006 11.9901C10.827 11.9618 10.6615 11.8775 10.5333 11.7493L6 7.21456L1.46524 11.7479C1.33707 11.8761 1.17161 11.9604 0.992586 11.9887C0.813559 12.0171 0.630151 11.988 0.468649 11.9057C0.307146 11.8234 0.175841 11.6921 0.0935516 11.5306C0.011262 11.3691 -0.0177869 11.1857 0.0105683 11.0067C0.0389234 10.8277 0.123227 10.6622 0.251395 10.5341L4.78616 6.00072L0.252824 1.46595C0.124655 1.33778 0.0403512 1.17233 0.0119961 0.9933C-0.016359 0.814273 0.0126901 0.630866 0.0949795 0.469363C0.177269 0.307861 0.308575 0.176555 0.470077 0.0942658C0.631579 0.0119765 0.814987 -0.0170727 0.994013 0.0112825C1.17304 0.0396376 1.33849 0.123941 1.46666 0.25211L6 4.78687L10.5348 0.251396C10.6629 0.123227 10.8284 0.0389234 11.0074 0.0105683C11.1864 -0.0177869 11.3698 0.0112623 11.5314 0.0935517C11.6929 0.175841 11.8242 0.307147 11.9064 0.468649C11.9887 0.630151 12.0178 0.813559 11.9894 0.992586C11.9611 1.17161 11.8768 1.33707 11.7486 1.46524L7.21384 6.00072L11.7472 10.5355Z" fill="currentColor" fill-rule="nonzero" />
</svg>
