<svg viewBox="0 0 18.5668 9.61976" xmlns="http://www.w3.org/2000/svg" xmlns:xlink="http://www.w3.org/1999/xlink" width="18.566803" height="9.619759" fill="none" customFrame="#000000">
	<path id="Форма 39" d="M18.429 6.01037C18.5379 6.19947 18.5841 6.4182 18.561 6.63519C18.538 6.85218 18.4468 7.0563 18.3006 7.2183C18.1544 7.3803 17.9607 7.49185 17.7472 7.53697C17.5337 7.5821 17.3114 7.55847 17.1121 7.46949C16.9129 7.3805 16.7469 7.23072 16.638 7.04162L15.1891 4.50646C14.3806 5.01507 13.509 5.41552 12.5964 5.69756L13.051 8.41662C13.0806 8.59515 13.0627 8.77832 12.9991 8.94774C12.9355 9.11716 12.8284 9.26686 12.6886 9.3818C12.5489 9.49674 12.3813 9.57287 12.2028 9.60256C12.1461 9.61255 12.0885 9.61744 12.0309 9.61717C11.8695 9.617 11.7104 9.57895 11.5663 9.50607C11.4223 9.43318 11.2974 9.32751 11.2017 9.19754C11.1059 9.06758 11.042 8.91695 11.0151 8.75779L10.5726 6.11092C9.7141 6.20602 8.84775 6.20602 7.98929 6.11092L7.551 8.76037C7.52407 8.91972 7.46006 9.07051 7.36413 9.20058C7.26821 9.33065 7.14306 9.43635 6.99878 9.50916C6.85449 9.58197 6.69512 9.61985 6.5335 9.61975C6.47589 9.62002 6.41837 9.61513 6.36163 9.60514C6.18308 9.57507 6.0156 9.49852 5.87602 9.3832C5.73644 9.26787 5.62968 9.11783 5.56649 8.94815C5.50329 8.77848 5.48588 8.59516 5.516 8.41662L5.97061 5.69068C5.05804 5.40864 4.18637 5.0082 3.37788 4.49959L1.92897 7.04162C1.8385 7.19888 1.70821 7.32955 1.55122 7.42048C1.39423 7.51141 1.21606 7.55941 1.03463 7.55964C0.853203 7.55987 0.674912 7.51233 0.517687 7.4218C0.360461 7.33127 0.229844 7.20093 0.138968 7.04391C0.0480931 6.88688 0.000164077 6.70869 4.91738e-07 6.52726C-0.000163093 6.34584 0.0474445 6.16756 0.138036 6.01037L1.721 3.24748C1.18449 2.76296 0.68708 2.23682 0.233427 1.67397C0.105876 1.50385 0.0340271 1.29846 0.0277178 1.08593C0.0214085 0.873401 0.0809472 0.664116 0.198182 0.486732C0.315416 0.309347 0.484614 0.172537 0.68261 0.0950327C0.880605 0.0175282 1.09772 0.00311959 1.30422 0.0537791C1.51072 0.104439 1.69651 0.21769 1.83616 0.378027C3.2146 2.08475 5.626 4.11975 9.2835 4.11975C12.941 4.11975 15.3524 2.08475 16.7308 0.378027C16.8682 0.210224 17.055 0.0899934 17.2646 0.0344282C17.4742 -0.0211369 17.696 -0.00920862 17.8985 0.0685169C18.1009 0.146243 18.2737 0.28581 18.3923 0.467378C18.5108 0.648944 18.5692 0.86327 18.5589 1.07988C18.5487 1.2965 18.4705 1.50438 18.3353 1.67396C17.8811 2.23689 17.3831 2.76303 16.846 3.24748L18.429 6.01037Z" fill="currentColor" fill-rule="nonzero" />
</svg>
