<svg viewBox="0 0 21.3159 14.4375" xmlns="http://www.w3.org/2000/svg" xmlns:xlink="http://www.w3.org/1999/xlink" width="21.315918" height="14.437500" fill="none" customFrame="#000000">
	<path id="Форма 41" d="M21.2289 6.80023C21.1971 6.73063 20.4443 5.05914 18.7814 3.39625C16.5565 1.17477 13.7524 0 10.6586 0C7.56487 0 4.76073 1.17477 2.53838 3.39625C0.875492 5.05914 0.122679 6.73063 0.0883044 6.80023C0.0300844 6.93223 1.52588e-05 7.07491 1.52588e-05 7.21918C1.52588e-05 7.36345 0.0300843 7.50613 0.0883044 7.63813C0.120101 7.70859 0.872914 9.37922 2.53666 11.0421C4.76073 13.2636 7.56487 14.4375 10.6586 14.4375C13.7524 14.4375 16.5565 13.2636 18.778 11.0421C20.4417 9.37922 21.1946 7.70859 21.2264 7.63813C21.285 7.50631 21.3155 7.36372 21.3159 7.21945C21.3164 7.07519 21.2867 6.93241 21.2289 6.80023ZM17.2706 9.63617C15.4256 11.4529 13.2015 12.375 10.6586 12.375C8.11573 12.375 5.89166 11.4529 4.04916 9.63531C3.32415 8.91793 2.7005 8.1049 2.19549 7.21875C2.70064 6.33296 3.32428 5.52023 4.04916 4.80305C5.89252 2.98461 8.11573 2.0625 10.6586 2.0625C13.2015 2.0625 15.4247 2.98461 17.2681 4.80305C17.993 5.52016 18.6167 6.3329 19.1217 7.21875C18.6167 8.10484 17.993 8.91787 17.2681 9.63531L17.2706 9.63617ZM10.6586 3.4375C9.91076 3.4375 9.17969 3.65927 8.55787 4.07476C7.93604 4.49024 7.45139 5.0808 7.1652 5.77173C6.879 6.46266 6.80412 7.22294 6.95002 7.95643C7.09592 8.68993 7.45605 9.36368 7.98487 9.8925C8.51369 10.4213 9.18744 10.7814 9.92093 10.9273C10.6544 11.0732 11.4147 10.9984 12.1056 10.7122C12.7966 10.426 13.3871 9.94132 13.8026 9.3195C14.2181 8.69768 14.4399 7.96661 14.4399 7.21875C14.4391 6.55522 14.264 5.90354 13.932 5.32903C13.6 4.75452 13.1228 4.27736 12.5483 3.94538C11.9738 3.6134 11.3221 3.43825 10.6586 3.4375ZM10.6586 8.9375C10.3187 8.9375 9.98638 8.8367 9.70373 8.64784C9.42108 8.45898 9.20079 8.19055 9.0707 7.87649C8.94061 7.56243 8.90657 7.21684 8.97289 6.88344C9.03921 6.55003 9.20291 6.24378 9.44328 6.00341C9.68365 5.76304 9.9899 5.59934 10.3233 5.53303C10.6567 5.46671 11.0023 5.50074 11.3164 5.63083C11.6304 5.76092 11.8988 5.98122 12.0877 6.26386C12.2766 6.54651 12.3774 6.87881 12.3774 7.21875C12.3774 7.52045 12.2979 7.81684 12.1471 8.07812C11.9962 8.33941 11.7793 8.55638 11.518 8.70723C11.2567 8.85808 10.9603 8.9375 10.6586 8.9375Z" fill="currentColor" fill-rule="nonzero" />
</svg>
