<svg viewBox="0 0 17.8752 17.1875" xmlns="http://www.w3.org/2000/svg" xmlns:xlink="http://www.w3.org/1999/xlink" width="17.875214" height="17.187531" fill="none" customFrame="#000000">
	<path id="Форма 40" d="M10.3125 4.46878L10.3125 8.01026L13.249 9.77198C13.4077 9.8633 13.5393 9.99525 13.6301 10.1542C13.721 10.3133 13.7678 10.4936 13.7659 10.6767C13.764 10.8598 13.7133 11.0391 13.6192 11.1962C13.525 11.3532 13.3907 11.4824 13.2301 11.5704C13.0695 11.6583 12.8883 11.7019 12.7053 11.6967C12.5222 11.6915 12.3438 11.6376 12.1885 11.5406L8.75102 9.47807C8.59825 9.38649 8.47181 9.25691 8.384 9.10193C8.2962 8.94696 8.25004 8.77189 8.25 8.59378L8.25 4.46878C8.25 4.251 8.31894 4.03881 8.44695 3.86262C8.57496 3.68644 8.75546 3.5553 8.96258 3.488C9.1697 3.4207 9.39281 3.4207 9.59993 3.488C9.80704 3.5553 9.98754 3.68644 10.1156 3.86262C10.2436 4.03881 10.3125 4.251 10.3125 4.46878ZM9.28125 2.83569e-05C8.15125 -0.00288077 7.03191 0.218484 5.98809 0.651298C4.94426 1.08411 3.9967 1.71977 3.20031 2.52143C2.79727 2.92878 2.42688 3.32667 2.0625 3.72456L2.0625 3.09378C2.0625 2.876 1.99356 2.66381 1.86555 2.48762C1.73754 2.31144 1.55704 2.1803 1.34992 2.113C1.1428 2.0457 0.919696 2.0457 0.712576 2.113C0.505457 2.1803 0.324958 2.31144 0.196951 2.48762C0.068944 2.66381 0 2.876 0 3.09378L0 6.53128C0 6.7123 0.0476501 6.89013 0.138161 7.0469C0.228672 7.20367 0.358855 7.33386 0.515625 7.42437C0.672395 7.51488 0.850228 7.56253 1.03125 7.56253L4.46875 7.56253C4.68653 7.56253 4.89872 7.49358 5.0749 7.36558C5.25109 7.23757 5.38223 7.05707 5.44953 6.84995C5.51682 6.64283 5.51682 6.41972 5.44953 6.2126C5.38223 6.00548 5.25109 5.82499 5.0749 5.69698C4.89872 5.56897 4.68653 5.50003 4.46875 5.50003L3.24586 5.50003C3.69531 4.9844 4.1568 4.48768 4.66297 3.9755C5.57061 3.0676 6.72568 2.44732 7.98385 2.19217C9.24201 1.93702 10.5475 2.05832 11.7371 2.5409C12.9267 3.02349 13.9477 3.84596 14.6726 4.90554C15.3974 5.96512 15.7939 7.21482 15.8125 8.49846C15.8311 9.7821 15.471 11.0428 14.7772 12.1229C14.0834 13.2031 13.0866 14.0548 11.9115 14.5716C10.7364 15.0885 9.43496 15.2476 8.16992 15.029C6.90489 14.8104 5.73232 14.2239 4.79875 13.3427C4.64032 13.1931 4.43861 13.0976 4.22253 13.0697C4.00646 13.0419 3.78711 13.0831 3.59593 13.1876C3.40475 13.2921 3.25155 13.4544 3.15829 13.6513C3.06502 13.8482 3.03649 14.0695 3.07676 14.2836C3.11704 14.4978 3.22407 14.6936 3.3825 14.8432C4.55011 15.9453 6.00314 16.6983 7.57686 17.0168C9.15058 17.3353 10.782 17.2065 12.2863 16.6451C13.7906 16.0837 15.1075 15.112 16.0878 13.8404C17.068 12.5687 17.6724 11.0479 17.8324 9.45024C17.9925 7.85261 17.7017 6.2421 16.9931 4.80128C16.2845 3.36047 15.1865 2.14698 13.8234 1.29837C12.4604 0.449763 10.8869 -1.22935e-05 9.28125 2.83569e-05Z" fill="currentColor" fill-rule="nonzero" />
</svg>
