<svg viewBox="0 0 16 16" xmlns="http://www.w3.org/2000/svg" xmlns:xlink="http://www.w3.org/1999/xlink" width="16.000000" height="16.000000" fill="none" customFrame="#000000">
	<path id="Форма 54" d="M10.5992 8.6792L7.3992 11.8792C7.2556 12.0228 7.07022 12.1173 6.86964 12.149C6.66905 12.1808 6.46356 12.1482 6.28261 12.056C6.10166 11.9639 5.95455 11.8167 5.86235 11.6358C5.77015 11.4548 5.73761 11.2493 5.76937 11.0488C5.80114 10.8482 5.8956 10.6628 6.0392 10.5192L7.6 8.96L0.96 8.96C0.757268 8.96 0.55974 8.89582 0.395726 8.77666C0.231713 8.65749 0.109633 8.48947 0.0469858 8.29666C-0.0156619 8.10385 -0.0156619 7.89615 0.0469857 7.70334C0.109633 7.51053 0.231712 7.34251 0.395726 7.22334C0.55974 7.10418 0.757268 7.04 0.96 7.04L7.6 7.04L6.0408 5.4792C5.8972 5.3356 5.80274 5.15022 5.77097 4.94964C5.73921 4.74905 5.77175 4.54356 5.86395 4.36261C5.95615 4.18166 6.10326 4.03455 6.28421 3.94235C6.46516 3.85015 6.67065 3.8176 6.87124 3.84937C7.07182 3.88114 7.2572 3.9756 7.4008 4.1192L10.6008 7.3192C10.7203 7.43856 10.8062 7.58733 10.8498 7.75049C10.8934 7.91365 10.8932 8.08544 10.8492 8.2485C10.8052 8.41156 10.719 8.56012 10.5992 8.6792ZM15.04 0L9.92 0C9.71727 0 9.51974 0.0641807 9.35573 0.183344C9.19171 0.302507 9.06963 0.470534 9.00699 0.663343C8.94434 0.856153 8.94434 1.06385 9.00699 1.25666C9.06963 1.44947 9.19171 1.61749 9.35573 1.73666C9.51974 1.85582 9.71727 1.92 9.92 1.92L14.08 1.92L14.08 14.08L9.92 14.08C9.71727 14.08 9.51974 14.1442 9.35573 14.2633C9.19171 14.3825 9.06963 14.5505 9.00699 14.7433C8.94434 14.9362 8.94434 15.1438 9.00699 15.3367C9.06963 15.5295 9.19171 15.6975 9.35573 15.8167C9.51974 15.9358 9.71727 16 9.92 16L15.04 16C15.2085 16 15.3741 15.9556 15.52 15.8714C15.6659 15.7871 15.7871 15.6659 15.8714 15.52C15.9556 15.3741 16 15.2085 16 15.04L16 0.96C16 0.791485 15.9556 0.625938 15.8714 0.48C15.7871 0.334062 15.6659 0.212873 15.52 0.128616C15.3741 0.0443579 15.2085 0 15.04 0Z" fill="currentColor" fill-rule="nonzero" />
</svg>
