<svg viewBox="0 0 18 18.9563" xmlns="http://www.w3.org/2000/svg" xmlns:xlink="http://www.w3.org/1999/xlink" width="18.000000" height="18.956264" fill="none" customFrame="#000000">
	<path id="Форма 20" d="M14.6919 0L3.31754 0C1.48815 0 0 1.48815 0 3.31754L0 18.0095C0 18.3412 0.170616 18.6446 0.445498 18.8152C0.720379 18.9858 1.07109 19.0047 1.36493 18.8531L6.62559 16.218L11.8863 18.8531C12.0305 18.9266 12.1911 18.9619 12.3529 18.9555C12.5146 18.9492 12.672 18.9013 12.81 18.8167C12.948 18.732 13.0619 18.6133 13.1408 18.4719C13.2197 18.3306 13.261 18.1714 13.2607 18.0095L13.2607 10.4265L17.0521 10.4265C17.5735 10.4265 18 10 18 9.47868L18 3.31754C18 1.48815 16.5118 0 14.6825 0L14.6919 0ZM11.3744 16.4739L7.06161 14.3128C6.93054 14.2477 6.78617 14.2138 6.63981 14.2138C6.49345 14.2138 6.34908 14.2477 6.21801 14.3128L1.90521 16.4739L1.90521 3.31754C1.90521 2.53081 2.54028 1.89573 3.32701 1.89573L11.7156 1.89573C11.5071 2.33175 11.3839 2.80569 11.3839 3.31754L11.3839 16.4739L11.3744 16.4739ZM16.1137 8.53081L13.2701 8.53081L13.2701 3.31754C13.2701 2.53081 13.9052 1.89573 14.6919 1.89573C15.4787 1.89573 16.1137 2.53081 16.1137 3.31754L16.1137 8.53081Z" fill="currentColor" fill-rule="nonzero" />
</svg>
