<svg xmlns="http://www.w3.org/2000/svg" viewBox="0 0 1073 250.767" width="1073.000000" height="250.767090" fill="none" customFrame="#000000">
	<path id="TextLogo-Dark" d="M949.739 61.6031L980.669 61.6031L972.024 104.892L942.887 104.892L924.316 197.233L865.019 197.233L883.397 104.892L863.674 104.892L872.383 61.6031L892.042 61.6031L892.81 58.2092C896.311 40.3643 904.273 26.2123 916.696 15.753C929.119 5.251 945.47 0 965.748 0C980.605 0 992.75 2.34802 1002.18 7.04402L979.644 48.2195C975.46 45.9569 970.999 44.8256 966.26 44.8256C961.522 44.8256 957.893 46.149 955.374 48.7958C952.855 51.4 950.977 55.5837 949.739 61.347L949.739 61.6031ZM793.425 2.6255L852.658 2.6255L813.852 197.233L754.618 197.233L793.425 2.6255ZM1002.18 13.6398L1073 13.6398L1038.68 126.92L991.417 126.92L1002.18 13.6398ZM215.035 51.1652C229.72 51.1652 241.652 55.413 250.831 63.9085C260.01 72.3613 264.599 84.4428 264.599 100.153C264.599 106.13 264.001 112.085 262.806 118.019L247.053 197.233L187.755 197.233L202.227 125.64C202.91 122.651 203.252 119.684 203.252 116.739C203.252 111.488 202.099 107.56 199.794 104.956C197.531 102.309 194.393 100.986 190.381 100.986C178.342 100.986 170.657 109.374 167.327 126.152L153.175 197.233L93.8775 197.233L108.286 125.64C109.012 122.651 109.374 119.684 109.374 116.739Q109.374 108.862 105.916 104.956C103.654 102.309 100.516 100.986 96.503 100.986C84.5922 100.986 76.8012 109.716 73.1297 127.177L59.2338 197.233L0 197.233L28.5603 53.7267L84.4001 53.7267L81.5185 67.6866C87.4953 62.0941 93.963 57.9531 100.922 55.2635C107.923 52.5313 115.095 51.1652 122.438 51.1652C131.36 51.1652 139.578 53.0863 147.092 56.9285C154.606 60.7707 160.475 66.4486 164.702 73.9622C170.977 66.6193 178.406 60.9841 186.987 57.0566C195.568 53.129 204.917 51.1652 215.035 51.1652ZM496.203 199.858C483.822 199.858 471.847 198.641 460.278 196.208C448.752 193.732 439.744 190.573 433.255 186.731L453.746 146.323C460.577 150.55 468.475 153.794 477.44 156.057C486.448 158.32 495.157 159.451 503.567 159.451C515.307 159.451 521.177 157.188 521.177 152.663C521.177 150.742 519.64 149.312 516.566 148.373C513.492 147.391 508.647 146.452 502.03 145.555C491.699 143.975 482.947 142.097 475.775 139.92C468.603 137.743 462.306 133.9 456.884 128.393C451.463 122.886 448.752 115.223 448.752 105.404C448.752 87.7727 456.265 74.3251 471.292 65.0611C486.362 55.7972 505.787 51.1652 529.566 51.1652C540.025 51.1652 550.1 52.0831 559.791 53.9188C569.524 55.7545 578.148 58.4013 585.662 61.8593L565.234 102.266C552.811 95.0943 538.552 91.5082 522.458 91.5082C516.182 91.5082 511.593 92.2126 508.69 93.6214C505.787 95.0302 504.335 96.6952 504.335 98.6163C504.335 100.537 505.83 101.989 508.818 102.971C511.806 103.91 516.886 104.999 524.058 106.237C534.176 107.816 542.779 109.695 549.865 111.872Q553.735 113.061 557.256 114.911L557.258 114.912Q563.41 118.146 568.5 123.398C573.836 128.906 576.504 136.462 576.504 146.067C576.504 157.637 572.961 167.498 565.874 175.652C558.788 183.764 549.161 189.826 536.994 193.839C524.87 197.852 511.273 199.858 496.203 199.858ZM753.004 114.369C753.004 122.224 751.958 130.528 749.867 139.279L649.393 139.279C650.631 145.214 653.513 149.504 658.038 152.151C662.606 154.755 668.903 156.057 676.929 156.057C688.84 156.057 699.256 152.727 708.179 146.067L732.833 181.992C715.329 193.903 694.432 199.858 670.141 199.858C654.559 199.858 640.77 197.147 628.774 191.725C616.82 186.304 607.556 178.619 600.982 168.672C594.45 158.683 591.184 146.964 591.184 133.516Q591.184 115.135 597.926 99.6992Q599.852 95.2912 602.326 91.124C609.755 78.6155 620.193 68.8393 633.64 61.7953C647.131 54.7086 662.606 51.1652 680.067 51.1652C695.137 51.1652 708.179 53.8334 719.193 59.1698C730.207 64.4634 738.596 71.8917 744.359 81.4545Q745.518 83.3675 746.521 85.3587Q753.004 98.2311 753.004 114.369ZM458.75 53.7267L370.572 200.114C362.717 213.22 355.032 223.402 347.518 230.66C340.005 237.917 332 243.083 323.505 246.156C315.009 249.23 305.084 250.767 293.728 250.767C285.873 250.767 278.06 249.614 270.29 247.309C262.478 245.046 256.224 242.079 251.528 238.408L277.206 197.233C283.866 202.313 291.038 204.853 298.723 204.853C304.486 204.853 309.374 202.846 313.387 198.833L281.945 53.7267L340.923 53.7267L355.651 130.891L400.733 53.7267L458.75 53.7267ZM677.505 91.5082C671.016 91.5082 665.616 93.2158 661.304 96.6311C657.035 100.046 653.854 104.721 651.763 110.655L698.701 110.655C698.701 104.721 696.78 100.046 692.938 96.6311C689.096 93.2158 683.952 91.5082 677.505 91.5082ZM1004.8 199.858C995.196 199.858 987.319 197.062 981.172 191.469C975.067 185.877 972.014 179.046 972.014 170.978C972.014 161.201 975.472 153.175 982.388 146.9C989.304 140.582 998.013 137.422 1008.52 137.422C1018.12 137.422 1025.98 140.133 1032.08 145.555C1038.23 150.977 1041.3 157.701 1041.3 165.727C1041.3 175.375 1037.8 183.486 1030.8 190.06C1023.8 196.592 1015.13 199.858 1004.8 199.858Z" fill="currentColor" fill-rule="evenodd" />
</svg>